#N canvas 0 0 1362 692 10;
#X floatatom -94 183 5 0 0 3 a0 - -;
#X floatatom -95 311 5 0 0 3 a0 - -;
#N canvas 0 0 1362 692 arduino 0;
#X obj 22 90 cnv 15 60 22 empty empty empty 20 12 0 14 -253938 -66577
0;
#N canvas 146 163 525 433 serin 0;
#X obj 180 61 cnv 15 15 15 empty \$0-number-canvas 3 4 8 0 14 -233017
-1 0;
#X obj 200 225 s \$0-number-canvas;
#X obj 60 61 hradio 15 1 1 8 empty empty empty 0 -6 0 8 -225271 -1
-1 3;
#X obj 60 13 inlet;
#X msg 200 202 label \$1;
#X obj 200 180 makefilename %d;
#X obj 59 108 int;
#X msg 59 206 open \$1;
#X obj 59 377 outlet;
#X msg 201 306 set \$1 \$2;
#X obj 59 266 trigger bang anything;
#X obj 201 286 list;
#X obj 383 383 outlet;
#X obj 384 22 netreceive 34567;
#X obj 477 43 tgl 15 0 empty empty empty 0 -6 0 10 -262144 -1 -1 0
1;
#X obj 384 41 bng 15 250 50 0 empty empty empty 0 -6 0 10 -262144 -1
-1;
#X obj 187 24 delay 15000;
#X text 345 379 close;
#X text 209 4 for open/close automation in Makefile;
#X obj 184 95 bang;
#X obj 184 137 send ARDUINO_TEST_RESET;
#X msg 184 116 set 0;
#X connect 2 0 6 0;
#X connect 2 0 19 0;
#X connect 3 0 2 0;
#X connect 4 0 1 0;
#X connect 5 0 4 0;
#X connect 6 0 5 0;
#X connect 6 0 7 0;
#X connect 7 0 10 0;
#X connect 9 0 8 0;
#X connect 10 0 8 0;
#X connect 10 1 11 0;
#X connect 11 0 9 0;
#X connect 13 0 15 0;
#X connect 13 1 14 0;
#X connect 15 0 16 0;
#X connect 15 0 12 0;
#X connect 16 0 2 0;
#X connect 19 0 21 0;
#X connect 21 0 20 0;
#X coords 0 -1 1 1 136 17 1 60 60;
#X restore 28 69 pd serin;
#X text 25 51 serial port #;
#X msg 88 92 close;
#X floatatom 22 446 5 0 0 3 a0 - -;
#X floatatom 68 446 5 0 0 3 a1 - -;
#X floatatom 114 446 5 0 0 3 a2 - -;
#X floatatom 160 446 5 0 0 3 a3 - -;
#X floatatom 206 446 5 0 0 3 a4 - -;
#X floatatom 252 446 5 0 0 3 a5 - -;
#X msg 121 132 info;
#X msg 121 152 version;
#X obj 121 389 route 0 1 2 3 4 5 6 7;
#N canvas 981 48 499 396 display 0;
#X obj 6 7 inlet;
#X obj 6 28 mapping/resample 100;
#X obj 6 50 outlet;
#X obj 54 50 inlet;
#X obj 54 71 mapping/resample 100;
#X obj 54 93 outlet;
#X obj 103 93 inlet;
#X obj 103 114 mapping/resample 100;
#X obj 103 136 outlet;
#X obj 151 136 inlet;
#X obj 151 157 mapping/resample 100;
#X obj 151 179 outlet;
#X obj 200 179 inlet;
#X obj 200 200 mapping/resample 100;
#X obj 200 222 outlet;
#X obj 247 222 inlet;
#X obj 247 243 mapping/resample 100;
#X obj 247 265 outlet;
#X obj 295 265 inlet;
#X obj 295 286 mapping/resample 100;
#X obj 295 308 outlet;
#X obj 345 308 inlet;
#X obj 345 329 mapping/resample 100;
#X obj 345 351 outlet;
#X obj 60 290 receive ARDUINO_TEST_RESET;
#X connect 0 0 1 0;
#X connect 1 0 2 0;
#X connect 3 0 4 0;
#X connect 4 0 5 0;
#X connect 6 0 7 0;
#X connect 7 0 8 0;
#X connect 9 0 10 0;
#X connect 10 0 11 0;
#X connect 12 0 13 0;
#X connect 13 0 14 0;
#X connect 15 0 16 0;
#X connect 16 0 17 0;
#X connect 18 0 19 0;
#X connect 19 0 20 0;
#X connect 21 0 22 0;
#X connect 22 0 23 0;
#X connect 24 0 22 0;
#X connect 24 0 19 0;
#X connect 24 0 16 0;
#X connect 24 0 13 0;
#X connect 24 0 10 0;
#X connect 24 0 7 0;
#X connect 24 0 4 0;
#X connect 24 0 1 0;
#X restore 45 420 pd display values without pegging the CPU;
#X obj 121 292 arduino 1;
#X msg 121 192 devices;
#X msg 121 172 firmware;
#N canvas 0 497 710 369 old 0;
#X msg 88 77 analogIns 2 1;
#N canvas 162 133 610 460 serin 0;
#X obj 59 337 outlet;
#X obj 59 266 trigger bang anything;
#X obj 201 286 list;
#X obj 60 61 tgl 15 0 junk_to_hide_inlet ARDUINO_TEST_RESET 0 5 9 1
12 -262130 -1 -1 1 1;
#X obj 75 61 tgl 15 0 junk_to_hide_inlet ARDUINO_TEST_RESET 1 5 9 1
12 -262130 -1 -1 1 1;
#X obj 90 61 tgl 15 0 junk_to_hide_inlet ARDUINO_TEST_RESET 2 5 9 1
12 -262130 -1 -1 1 1;
#X obj 105 61 tgl 15 0 junk_to_hide_inlet ARDUINO_TEST_RESET 3 5 9
1 12 -262130 -1 -1 0 1;
#X obj 120 61 tgl 15 0 junk_to_hide_inlet ARDUINO_TEST_RESET 4 5 9
1 12 -262130 -1 -1 0 1;
#X obj 135 61 tgl 15 0 junk_to_hide_inlet ARDUINO_TEST_RESET 5 5 9
1 12 -262130 -1 -1 0 1;
#X obj 150 61 tgl 15 0 junk_to_hide_inlet ARDUINO_TEST_RESET 6 5 9
1 12 -262130 -1 -1 0 1;
#X obj 165 61 tgl 15 0 junk_to_hide_inlet ARDUINO_TEST_RESET 7 5 9
1 12 -262130 -1 -1 0 1;
#X msg 59 210 analogIns \$1 \$2;
#X msg 35 106 0 \$1;
#X msg 70 106 1 \$1;
#X msg 105 106 2 \$1;
#X msg 140 106 3 \$1;
#X msg 175 106 4 \$1;
#X msg 210 106 5 \$1;
#X msg 245 106 6 \$1;
#X msg 280 106 7 \$1;
#X msg 202 307 set \$1 \$2 \$3;
#X connect 1 0 0 0;
#X connect 1 1 2 0;
#X connect 2 0 20 0;
#X connect 3 0 12 0;
#X connect 4 0 13 0;
#X connect 5 0 14 0;
#X connect 6 0 15 0;
#X connect 7 0 16 0;
#X connect 8 0 17 0;
#X connect 9 0 18 0;
#X connect 10 0 19 0;
#X connect 11 0 1 0;
#X connect 12 0 11 0;
#X connect 13 0 11 0;
#X connect 14 0 11 0;
#X connect 15 0 11 0;
#X connect 16 0 11 0;
#X connect 17 0 11 0;
#X connect 18 0 11 0;
#X connect 19 0 11 0;
#X connect 20 0 0 0;
#X coords 0 -1 1 1 120 16 1 60 60;
#X restore 88 55 pd serin;
#X text 87 38 which analogIns to enable:;
#X obj 42 179 outlet;
#X text 232 60 <<<<< 3) activate the corresponding Input pin;
#X connect 0 0 3 0;
#X connect 1 0 0 0;
#X restore 187 237 pd old analog/digital controls;
#X text 185 150 <-- get protocol version;
#X text 185 170 <-- get firmware name and version;
#X text 185 131 <-- get connection info;
#X text 181 291 <-- argument sets port #;
#X text 185 190 <-- list available serial devices;
#X text 9 389 analog inputs:;
#X obj 121 324 route analog digital string sysex;
#X msg 28 92 open 3;
#X text 79 237 **** I USE THESE;
#X text 8 1 The [arduino] object works with the Standard Firmata firmware.
;
#X text 192 50 1) select port;
#X text 394 239 2) go into this subpatch;
#X obj 23 506 outlet;
#X obj 69 504 outlet;
#X obj 125 507 outlet;
#X obj 177 505 outlet;
#X obj 225 507 outlet;
#X obj 277 505 outlet;
#X connect 1 0 25 0;
#X connect 1 1 3 0;
#X connect 3 0 14 0;
#X connect 4 0 30 0;
#X connect 5 0 31 0;
#X connect 6 0 32 0;
#X connect 7 0 33 0;
#X connect 8 0 34 0;
#X connect 9 0 35 0;
#X connect 10 0 14 0;
#X connect 11 0 14 0;
#X connect 12 0 13 0;
#X connect 12 1 13 1;
#X connect 12 2 13 2;
#X connect 12 3 13 3;
#X connect 12 4 13 4;
#X connect 12 5 13 5;
#X connect 12 6 13 6;
#X connect 12 7 13 7;
#X connect 13 0 4 0;
#X connect 13 1 5 0;
#X connect 13 2 6 0;
#X connect 13 3 7 0;
#X connect 13 4 8 0;
#X connect 13 5 9 0;
#X connect 14 0 24 0;
#X connect 15 0 14 0;
#X connect 16 0 14 0;
#X connect 17 0 14 0;
#X connect 24 0 12 0;
#X connect 25 0 14 0;
#X restore 323 -16 pd arduino;
#X floatatom -95 101 5 0 0 0 - - -;
#X obj -96 77 line 0;
#X floatatom -40 29 5 0 0 0 - - -;
#X text -292 21 smooth time - higher number = smoother;
#X obj -94 148 * 50;
#X floatatom 140 191 5 0 0 3 a0 - -;
#X floatatom 143 300 5 0 0 3 a0 - -;
#X floatatom 142 397 5 0 0 3 a0 - -;
#X floatatom 139 109 5 0 0 0 - - -;
#X obj 138 85 line 0;
#X floatatom 194 37 5 0 0 0 - - -;
#X floatatom 513 186 5 0 0 3 a0 - -;
#X floatatom 516 295 5 0 0 3 a0 - -;
#X floatatom 515 392 5 0 0 3 a0 - -;
#X floatatom 512 104 5 0 0 0 - - -;
#X obj 511 80 line 0;
#X floatatom 567 32 5 0 0 0 - - -;
#X obj 513 151 * 50;
#X obj 139 156 * 50;
#X obj 137 59 pack 0 300;
#X obj 186 682 output~;
#X obj -96 51 pack 0 300;
#X floatatom -80 413 5 0 0 3 a0 - -;
#X obj 510 54 pack 0 300;
#X obj 516 243 - 8;
#N canvas 0 0 1362 686 (subpatch) 0;
#X obj 376 397 vsl 15 128 0 127 0 0 empty empty empty 0 -8 0 8 -262144
-1 -1 0 1;
#X obj 394 397 vsl 15 128 0 127 0 0 empty empty empty 0 -8 0 8 -262144
-1 -1 0 1;
#X obj 412 397 vsl 15 128 0 127 0 0 empty empty empty 0 -8 0 8 -262144
-1 -1 0 1;
#X obj 430 397 vsl 15 128 0 127 0 0 empty empty empty 0 -8 0 8 -262144
-1 -1 0 1;
#X obj 448 397 vsl 15 128 0 127 0 0 empty empty empty 0 -8 0 8 -262144
-1 -1 0 1;
#X obj 466 397 vsl 15 128 0 127 0 0 empty empty empty 0 -8 0 8 -262144
-1 -1 0 1;
#X obj 358 397 vsl 15 128 0 127 0 0 empty empty empty 0 -8 0 8 -257985
-1 -1 0 1;
#X obj 470 53 metro 10;
#X obj 470 28 loadbang;
#X text 1200 143 move the first slider ->;
#X text 567 512 <- or the last one;
#X text 326 179 This is the first exemple of physical modeling;
#X text 326 201 this is an elastic string;
#X obj 484 397 vsl 15 128 0 127 0 0 empty empty empty 0 -8 0 8 -262144
-1 -1 0 1;
#X obj 502 397 vsl 15 128 0 127 0 0 empty empty empty 0 -8 0 8 -262144
-1 -1 0 1;
#X obj 470 80 t b b;
#X obj 505 105 s \$0-link;
#X obj 470 131 s \$0-mass;
#X text 270 246 <- metronome send bangs to mass and link and gives
the general computation speed;
#X obj 0 340 link \$0-link 0 1 1;
#X obj 148 340 link \$0-link 0 1 1;
#X obj 297 340 link \$0-link 0 1 1;
#X obj 446 340 link \$0-link 0 1 1;
#X obj 596 340 link \$0-link 0 1 1;
#X obj 744 340 link \$0-link 0 1 1;
#X obj 893 340 link \$0-link 0 1 1;
#X obj 1042 340 link \$0-link 0 1 1;
#X obj 143 316 mass \$0-mass 30;
#X obj 291 315 mass \$0-mass 30;
#X obj 441 316 mass \$0-mass 30;
#X obj 592 316 mass \$0-mass 30;
#X obj 740 315 mass \$0-mass 30;
#X obj 891 315 mass \$0-mass 30;
#X obj 1038 315 mass \$0-mass 30;
#X text 1197 232 You can see the propagation of a wave \, and physical
properties of a kind of elastic string.;
#X obj 689 556 bp~ 80 5;
#X obj 751 556 bp~ 160 5;
#X obj 820 557 bp~ 380 5;
#X obj 889 557 bp~ 760 5;
#X obj 710 581 / 127;
#X obj 710 631 *;
#X obj 710 605 t f f;
#X msg 710 657 \$1 10;
#X obj 710 684 line~;
#X obj 690 710 *~;
#X obj 773 582 / 127;
#X obj 773 632 *;
#X obj 773 606 t f f;
#X msg 773 658 \$1 10;
#X obj 773 685 line~;
#X obj 751 711 *~;
#X obj 842 582 / 127;
#X obj 842 632 *;
#X obj 842 606 t f f;
#X msg 842 658 \$1 10;
#X obj 842 685 line~;
#X obj 820 711 *~;
#X obj 915 585 / 127;
#X obj 915 635 *;
#X obj 915 609 t f f;
#X msg 915 661 \$1 10;
#X obj 915 688 line~;
#X obj 889 714 *~;
#X obj 978 582 / 127;
#X obj 978 632 *;
#X obj 978 606 t f f;
#X msg 978 658 \$1 10;
#X obj 978 685 line~;
#X obj 958 711 *~;
#X obj 1064 581 / 127;
#X obj 1064 631 *;
#X obj 1064 605 t f f;
#X msg 1064 657 \$1 10;
#X obj 1064 684 line~;
#X obj 1034 711 *~;
#X obj 1132 582 / 127;
#X obj 1132 632 *;
#X obj 1132 606 t f f;
#X msg 1132 658 \$1 10;
#X obj 1132 685 line~;
#X obj 1110 711 *~;
#X obj 958 557 bp~ 1380 5;
#X obj 1034 557 bp~ 3160 5;
#X obj 1110 557 bp~ 6380 5;
#X text 1197 190 all the slider are "linked" together with a link.
Each slider has a mass so they have inertia.;
#X text 272 283 masss and link have to be computed one after the other.
;
#X obj 229 393 inlet;
#X obj 890 759 outlet~;
#X obj 1233 186 f;
#X obj 1203 186 +;
#X floatatom 1210 234 5 0 0 0 - - fader1;
#X obj 1224 76 key;
#X obj 1175 130 select 1;
#X obj 1235 130 select 1;
#X obj 1175 110 == 119;
#X obj 1235 110 == 113;
#X obj 100 100 cnv 15 200 150 empty empty qwerty_control 20 12 1 14
-224751 -66577 0;
#X obj 158 177 hsl 128 15 60 72 0 1 empty empty 1_q<--->w 80 8 1 10
-128992 -260097 -257985 1058 1;
#X obj 122 181 tgl 15 1 empty drums1 a-> -20 7 1 12 -260097 -257985
-1 1 1;
#X obj 1256 281 loadbang;
#X msg 102 126 1;
#X obj 49 95 loadbang;
#X floatatom 1177 354 5 0 0 0 - - -;
#X obj 1187 424 mtof;
#X obj 1158 473;
#X msg 1245 345 60;
#X msg 1235 152 -1;
#X msg 1175 152 1;
#X obj 1203 208 clip 60 72;
#X obj 961 430 phasor~ 0;
#X obj 1110 507 phasor~ 262;
#X connect 0 0 39 0;
#X connect 1 0 45 0;
#X connect 2 0 51 0;
#X connect 3 0 57 0;
#X connect 4 0 63 0;
#X connect 5 0 69 0;
#X connect 6 0 19 0;
#X connect 7 0 15 0;
#X connect 8 0 7 0;
#X connect 13 0 75 0;
#X connect 14 0 26 1;
#X connect 15 0 17 0;
#X connect 15 1 16 0;
#X connect 19 1 27 0;
#X connect 20 0 27 0;
#X connect 20 1 28 0;
#X connect 21 0 28 0;
#X connect 21 1 29 0;
#X connect 22 0 29 0;
#X connect 22 1 30 0;
#X connect 23 0 30 0;
#X connect 23 1 31 0;
#X connect 24 0 31 0;
#X connect 24 1 32 0;
#X connect 25 0 32 0;
#X connect 25 1 33 0;
#X connect 26 0 33 0;
#X connect 27 0 0 0;
#X connect 27 0 19 1;
#X connect 27 0 20 0;
#X connect 28 0 1 0;
#X connect 28 0 20 1;
#X connect 28 0 21 0;
#X connect 29 0 2 0;
#X connect 29 0 21 1;
#X connect 29 0 22 0;
#X connect 30 0 3 0;
#X connect 30 0 22 1;
#X connect 30 0 23 0;
#X connect 31 0 4 0;
#X connect 31 0 23 1;
#X connect 31 0 24 0;
#X connect 32 0 5 0;
#X connect 32 0 24 1;
#X connect 32 0 25 0;
#X connect 33 0 13 0;
#X connect 33 0 25 1;
#X connect 33 0 26 0;
#X connect 35 0 44 0;
#X connect 36 0 50 0;
#X connect 37 0 56 0;
#X connect 38 0 62 0;
#X connect 39 0 41 0;
#X connect 40 0 42 0;
#X connect 41 0 40 0;
#X connect 41 1 40 1;
#X connect 42 0 43 0;
#X connect 43 0 44 1;
#X connect 44 0 87 0;
#X connect 45 0 47 0;
#X connect 46 0 48 0;
#X connect 47 0 46 0;
#X connect 47 1 46 1;
#X connect 48 0 49 0;
#X connect 49 0 50 1;
#X connect 50 0 87 0;
#X connect 51 0 53 0;
#X connect 52 0 54 0;
#X connect 53 0 52 0;
#X connect 53 1 52 1;
#X connect 54 0 55 0;
#X connect 55 0 56 1;
#X connect 56 0 87 0;
#X connect 57 0 59 0;
#X connect 58 0 60 0;
#X connect 59 0 58 0;
#X connect 59 1 58 1;
#X connect 60 0 61 0;
#X connect 61 0 62 1;
#X connect 62 0 87 0;
#X connect 63 0 65 0;
#X connect 64 0 66 0;
#X connect 65 0 64 0;
#X connect 65 1 64 1;
#X connect 66 0 67 0;
#X connect 67 0 68 1;
#X connect 68 0 87 0;
#X connect 69 0 71 0;
#X connect 70 0 72 0;
#X connect 71 0 70 0;
#X connect 71 1 70 1;
#X connect 72 0 73 0;
#X connect 73 0 74 1;
#X connect 74 0 87 0;
#X connect 75 0 77 0;
#X connect 76 0 78 0;
#X connect 77 0 76 0;
#X connect 77 1 76 1;
#X connect 78 0 79 0;
#X connect 79 0 80 1;
#X connect 80 0 87 0;
#X connect 81 0 68 0;
#X connect 82 0 74 0;
#X connect 83 0 80 0;
#X connect 86 0 6 0;
#X connect 88 0 89 1;
#X connect 89 0 88 0;
#X connect 89 0 108 0;
#X connect 91 0 94 0;
#X connect 91 0 95 0;
#X connect 92 0 107 0;
#X connect 93 0 106 0;
#X connect 94 0 92 0;
#X connect 95 0 93 0;
#X connect 99 0 105 0;
#X connect 100 0 98 0;
#X connect 101 0 100 0;
#X connect 102 0 103 0;
#X connect 103 0 109 0;
#X connect 105 0 88 0;
#X connect 105 0 90 0;
#X connect 106 0 89 0;
#X connect 107 0 89 0;
#X connect 108 0 90 0;
#X connect 108 0 102 0;
#X connect 108 0 97 0;
#X connect 109 0 83 0;
#X connect 109 0 82 0;
#X connect 109 0 81 0;
#X connect 109 0 38 0;
#X connect 109 0 37 0;
#X connect 109 0 36 0;
#X connect 109 0 35 0;
#X connect 110 0 35 0;
#X connect 110 0 36 0;
#X connect 110 0 37 0;
#X connect 110 0 38 0;
#X connect 110 0 81 0;
#X connect 110 0 82 0;
#X connect 110 0 83 0;
#X coords 0 -1 1 1 200 150 1 100 100;
#X restore -112 451 pd;
#N canvas 0 0 1362 686 (subpatch) 0;
#X obj 405 498 vsl 15 128 0 127 0 0 empty empty empty 0 -8 0 8 -262144
-1 -1 0 1;
#X obj 423 498 vsl 15 128 0 127 0 0 empty empty empty 0 -8 0 8 -262144
-1 -1 0 1;
#X obj 441 498 vsl 15 128 0 127 0 0 empty empty empty 0 -8 0 8 -262144
-1 -1 0 1;
#X obj 459 498 vsl 15 128 0 127 0 0 empty empty empty 0 -8 0 8 -262144
-1 -1 0 1;
#X obj 477 498 vsl 15 128 0 127 0 0 empty empty empty 0 -8 0 8 -262144
-1 -1 0 1;
#X obj 495 498 vsl 15 128 0 127 0 0 empty empty empty 0 -8 0 8 -262144
-1 -1 0 1;
#X obj 387 498 vsl 15 128 0 127 0 0 empty empty empty 0 -8 0 8 -257985
-1 -1 0 1;
#X obj 35 280 metro 10;
#X obj 35 255 loadbang;
#X text 596 613 <- or the last one;
#X text 294 256 This is the first exemple of physical modeling;
#X text 294 278 this is an elastic string;
#X obj 513 498 vsl 15 128 0 127 0 0 empty empty empty 0 -8 0 8 -262144
-1 -1 0 1;
#X obj 531 498 vsl 15 128 0 127 0 0 empty empty empty 0 -8 0 8 -262144
-1 -1 0 1;
#X obj 35 307 t b b;
#X obj 162 281 s \$0-link;
#X obj 35 360 s \$0-mass;
#X text 180 312 <- metronome send bangs to mass and link and gives
the general computation speed;
#X obj 29 441 link \$0-link 0 1 1;
#X obj 173 413 link \$0-link 0 1 1;
#X obj 322 413 link \$0-link 0 1 1;
#X obj 475 441 link \$0-link 0 1 1;
#X obj 625 441 link \$0-link 0 1 1;
#X obj 773 441 link \$0-link 0 1 1;
#X obj 922 441 link \$0-link 0 1 1;
#X obj 1071 441 link \$0-link 0 1 1;
#X obj 157 388 mass \$0-mass 30;
#X obj 316 388 mass \$0-mass 30;
#X obj 470 417 mass \$0-mass 30;
#X obj 621 417 mass \$0-mass 30;
#X obj 769 416 mass \$0-mass 30;
#X obj 920 416 mass \$0-mass 30;
#X obj 1067 416 mass \$0-mass 30;
#X text 140 796 You can see the propagation of a wave \, and physical
properties of a kind of elastic string.;
#X obj 718 657 bp~ 80 5;
#X obj 780 657 bp~ 160 5;
#X obj 849 658 bp~ 380 5;
#X obj 918 658 bp~ 760 5;
#X obj 739 682 / 127;
#X obj 739 732 *;
#X obj 739 706 t f f;
#X msg 739 758 \$1 10;
#X obj 739 785 line~;
#X obj 719 811 *~;
#X obj 802 683 / 127;
#X obj 802 733 *;
#X obj 802 707 t f f;
#X msg 802 759 \$1 10;
#X obj 802 786 line~;
#X obj 780 812 *~;
#X obj 871 683 / 127;
#X obj 871 733 *;
#X obj 871 707 t f f;
#X msg 871 759 \$1 10;
#X obj 871 786 line~;
#X obj 849 812 *~;
#X obj 944 686 / 127;
#X obj 944 736 *;
#X obj 944 710 t f f;
#X msg 944 762 \$1 10;
#X obj 944 789 line~;
#X obj 918 815 *~;
#X obj 1007 683 / 127;
#X obj 1007 733 *;
#X obj 1007 707 t f f;
#X msg 1007 759 \$1 10;
#X obj 1007 786 line~;
#X obj 987 812 *~;
#X obj 1093 682 / 127;
#X obj 1093 732 *;
#X obj 1093 706 t f f;
#X msg 1093 758 \$1 10;
#X obj 1093 785 line~;
#X obj 1063 812 *~;
#X obj 1161 683 / 127;
#X obj 1161 733 *;
#X obj 1161 707 t f f;
#X msg 1161 759 \$1 10;
#X obj 1161 786 line~;
#X obj 1139 812 *~;
#X obj 987 658 bp~ 1380 5;
#X obj 1063 658 bp~ 3160 5;
#X obj 1139 658 bp~ 6380 5;
#X text 138 751 all the slider are "linked" together with a link. Each
slider has a mass so they have inertia.;
#X text 182 349 masss and link have to be computed one after the other.
;
#X obj 254 466 inlet;
#X obj 919 859 outlet~;
#X floatatom 1171 545 5 0 0 0 - - -;
#X obj 1125 570 mtof;
#X obj 1235 411 f;
#X obj 1205 411 +;
#X floatatom 1220 469 5 0 0 0 - - fader2;
#X obj 1226 301 key;
#X obj 1177 355 select 1;
#X obj 1237 355 select 1;
#X obj 1237 335 == 101;
#X obj 1177 335 == 114;
#X obj 102 100 cnv 15 200 150 empty empty qwerty_control 20 12 1 14
-224751 -66577 0;
#X obj 163 155 hsl 128 15 60 72 0 1 empty fader2 2_e<---->r 80 8 1
10 -128992 -260097 -257985 6350 1;
#X obj 133 154 tgl 15 1 empty drums2 s-> -20 7 1 12 -260097 -257985
-1 1 1;
#X obj 1278 571 loadbang;
#X msg 583 44 1;
#X obj 969 71 loadbang;
#X msg 1253 533 60;
#X msg 1177 377 1;
#X msg 1237 377 -1;
#X obj 1205 433 clip 60 72;
#X obj 990 531 phasor~ 0;
#X obj 1139 609 phasor~ 523;
#X connect 0 0 38 0;
#X connect 1 0 44 0;
#X connect 2 0 50 0;
#X connect 3 0 56 0;
#X connect 4 0 62 0;
#X connect 5 0 68 0;
#X connect 6 0 18 0;
#X connect 7 0 14 0;
#X connect 8 0 7 0;
#X connect 12 0 74 0;
#X connect 13 0 25 1;
#X connect 14 0 16 0;
#X connect 14 1 15 0;
#X connect 18 1 26 0;
#X connect 19 0 26 0;
#X connect 19 1 27 0;
#X connect 20 0 27 0;
#X connect 20 1 28 0;
#X connect 21 0 28 0;
#X connect 21 1 29 0;
#X connect 22 0 29 0;
#X connect 22 1 30 0;
#X connect 23 0 30 0;
#X connect 23 1 31 0;
#X connect 24 0 31 0;
#X connect 24 1 32 0;
#X connect 25 0 32 0;
#X connect 26 0 0 0;
#X connect 26 0 18 1;
#X connect 26 0 19 0;
#X connect 27 0 1 0;
#X connect 27 0 19 1;
#X connect 27 0 20 0;
#X connect 28 0 2 0;
#X connect 28 0 20 1;
#X connect 28 0 21 0;
#X connect 29 0 3 0;
#X connect 29 0 21 1;
#X connect 29 0 22 0;
#X connect 30 0 4 0;
#X connect 30 0 22 1;
#X connect 30 0 23 0;
#X connect 31 0 5 0;
#X connect 31 0 23 1;
#X connect 31 0 24 0;
#X connect 32 0 12 0;
#X connect 32 0 24 1;
#X connect 32 0 25 0;
#X connect 34 0 43 0;
#X connect 35 0 49 0;
#X connect 36 0 55 0;
#X connect 37 0 61 0;
#X connect 38 0 40 0;
#X connect 39 0 41 0;
#X connect 40 0 39 0;
#X connect 40 1 39 1;
#X connect 41 0 42 0;
#X connect 42 0 43 1;
#X connect 43 0 86 0;
#X connect 44 0 46 0;
#X connect 45 0 47 0;
#X connect 46 0 45 0;
#X connect 46 1 45 1;
#X connect 47 0 48 0;
#X connect 48 0 49 1;
#X connect 49 0 86 0;
#X connect 50 0 52 0;
#X connect 51 0 53 0;
#X connect 52 0 51 0;
#X connect 52 1 51 1;
#X connect 53 0 54 0;
#X connect 54 0 55 1;
#X connect 55 0 86 0;
#X connect 56 0 58 0;
#X connect 57 0 59 0;
#X connect 58 0 57 0;
#X connect 58 1 57 1;
#X connect 59 0 60 0;
#X connect 60 0 61 1;
#X connect 61 0 86 0;
#X connect 62 0 64 0;
#X connect 63 0 65 0;
#X connect 64 0 63 0;
#X connect 64 1 63 1;
#X connect 65 0 66 0;
#X connect 66 0 67 1;
#X connect 67 0 86 0;
#X connect 68 0 70 0;
#X connect 69 0 71 0;
#X connect 70 0 69 0;
#X connect 70 1 69 1;
#X connect 71 0 72 0;
#X connect 72 0 73 1;
#X connect 73 0 86 0;
#X connect 74 0 76 0;
#X connect 75 0 77 0;
#X connect 76 0 75 0;
#X connect 76 1 75 1;
#X connect 77 0 78 0;
#X connect 78 0 79 1;
#X connect 79 0 86 0;
#X connect 80 0 67 0;
#X connect 81 0 73 0;
#X connect 82 0 79 0;
#X connect 85 0 6 0;
#X connect 87 0 88 0;
#X connect 88 0 107 0;
#X connect 89 0 90 1;
#X connect 90 0 89 0;
#X connect 90 0 106 0;
#X connect 92 0 95 0;
#X connect 92 0 96 0;
#X connect 93 0 104 0;
#X connect 94 0 105 0;
#X connect 95 0 94 0;
#X connect 96 0 93 0;
#X connect 100 0 103 0;
#X connect 101 0 99 0;
#X connect 102 0 101 0;
#X connect 103 0 89 0;
#X connect 103 0 91 0;
#X connect 104 0 90 0;
#X connect 105 0 90 0;
#X connect 106 0 91 0;
#X connect 106 0 98 0;
#X connect 106 0 87 0;
#X connect 107 0 82 0;
#X connect 107 0 81 0;
#X connect 107 0 80 0;
#X connect 107 0 37 0;
#X connect 107 0 36 0;
#X connect 107 0 35 0;
#X connect 107 0 34 0;
#X connect 108 0 34 0;
#X connect 108 0 35 0;
#X connect 108 0 36 0;
#X connect 108 0 37 0;
#X connect 108 0 80 0;
#X connect 108 0 81 0;
#X connect 108 0 82 0;
#X coords 0 -1 1 1 200 150 2 100 100;
#X restore 141 451 pd;
#N canvas 0 0 1362 686 (subpatch) 0;
#X obj 378 509 vsl 15 128 0 127 0 0 empty empty empty 0 -8 0 8 -262144
-1 -1 350 1;
#X obj 396 509 vsl 15 128 0 127 0 0 empty empty empty 0 -8 0 8 -262144
-1 -1 293 1;
#X obj 414 509 vsl 15 128 0 127 0 0 empty empty empty 0 -8 0 8 -262144
-1 -1 237 1;
#X obj 432 509 vsl 15 128 0 127 0 0 empty empty empty 0 -8 0 8 -262144
-1 -1 182 1;
#X obj 450 509 vsl 15 128 0 127 0 0 empty empty empty 0 -8 0 8 -262144
-1 -1 130 1;
#X obj 468 509 vsl 15 128 0 127 0 0 empty empty empty 0 -8 0 8 -262144
-1 -1 82 1;
#X obj 360 509 vsl 15 128 0 127 0 0 empty empty empty 0 -8 0 8 -257985
-1 -1 407 1;
#X obj 8 291 metro 10;
#X obj 8 266 loadbang;
#X text 137 618 move the first slider ->;
#X text 569 624 <- or the last one;
#X text 267 267 This is the first exemple of physical modeling;
#X text 267 289 this is an elastic string;
#X obj 486 509 vsl 15 128 0 127 0 0 empty empty empty 0 -8 0 8 -262144
-1 -1 40 1;
#X obj 504 509 vsl 15 128 0 127 0 0 empty empty empty 0 -8 0 8 -262144
-1 -1 0 1;
#X obj 8 318 t b b;
#X obj 43 343 s \$0-link;
#X obj 8 369 s \$0-mass;
#X text 157 351 <- metronome send bangs to mass and link and gives
the general computation speed;
#X obj 2 452 link \$0-link 0 1 1;
#X obj 150 452 link \$0-link 0 1 1;
#X obj 299 452 link \$0-link 0 1 1;
#X obj 448 452 link \$0-link 0 1 1;
#X obj 598 452 link \$0-link 0 1 1;
#X obj 746 452 link \$0-link 0 1 1;
#X obj 895 452 link \$0-link 0 1 1;
#X obj 1047 452 link \$0-link 0 1 1;
#X obj 145 428 mass \$0-mass 30;
#X obj 293 427 mass \$0-mass 30;
#X obj 443 428 mass \$0-mass 30;
#X obj 594 428 mass \$0-mass 30;
#X obj 742 427 mass \$0-mass 30;
#X obj 893 427 mass \$0-mass 30;
#X obj 1043 427 mass \$0-mass 30;
#X text 134 707 You can see the propagation of a wave \, and physical
properties of a kind of elastic string.;
#X obj 691 668 bp~ 80 5;
#X obj 753 668 bp~ 160 5;
#X obj 822 669 bp~ 380 5;
#X obj 891 669 bp~ 760 5;
#X obj 712 693 / 127;
#X obj 712 743 *;
#X obj 712 717 t f f;
#X msg 712 769 \$1 10;
#X obj 712 796 line~;
#X obj 692 822 *~;
#X obj 775 694 / 127;
#X obj 775 744 *;
#X obj 775 718 t f f;
#X msg 775 770 \$1 10;
#X obj 775 797 line~;
#X obj 753 823 *~;
#X obj 844 694 / 127;
#X obj 844 744 *;
#X obj 844 718 t f f;
#X msg 844 770 \$1 10;
#X obj 844 797 line~;
#X obj 822 823 *~;
#X obj 917 697 / 127;
#X obj 917 747 *;
#X obj 917 721 t f f;
#X msg 917 773 \$1 10;
#X obj 917 800 line~;
#X obj 891 826 *~;
#X obj 980 694 / 127;
#X obj 980 744 *;
#X obj 980 718 t f f;
#X msg 980 770 \$1 10;
#X obj 980 797 line~;
#X obj 960 823 *~;
#X obj 1066 693 / 127;
#X obj 1066 743 *;
#X obj 1066 717 t f f;
#X msg 1066 769 \$1 10;
#X obj 1066 796 line~;
#X obj 1036 823 *~;
#X obj 1134 694 / 127;
#X obj 1134 744 *;
#X obj 1134 718 t f f;
#X msg 1134 770 \$1 10;
#X obj 1134 797 line~;
#X obj 1112 823 *~;
#X obj 960 669 bp~ 1380 5;
#X obj 1039 669 bp~ 3160 5;
#X obj 1115 669 bp~ 6380 5;
#X text 134 665 all the slider are "linked" together with a link. Each
slider has a mass so they have inertia.;
#X text 159 388 masss and link have to be computed one after the other.
;
#X obj 231 505 inlet;
#X obj 892 871 outlet~;
#X obj 1223 566 f;
#X obj 1193 566 +;
#X floatatom 1193 609 5 0 0 0 - - fader1;
#X obj 1214 456 key;
#X obj 1165 510 select 1;
#X obj 1225 510 select 1;
#X obj 101 100 cnv 15 200 150 empty empty qwerty_control 20 12 1 14
-224751 -66577 0;
#X obj 166 168 hsl 128 15 60 72 0 1 empty empty 3_t<--->y 80 8 1 10
-128992 -260097 -257985 2117 1;
#X obj 1246 661 loadbang;
#X msg 1090 263 1;
#X obj 1077 226 loadbang;
#X floatatom 1107 585 5 0 0 0 - - -;
#X obj 1065 549 mtof;
#X obj 1165 490 == 121;
#X obj 1225 490 == 116;
#X msg 1294 621 60;
#X obj 127 170 tgl 15 1 empty cell d-> -20 7 1 12 -260097 -257985 -1
1 1;
#X msg 1165 532 1;
#X msg 1225 532 -1;
#X obj 1141 535 bng 15 250 50 0 empty empty empty 17 7 0 10 -262144
-1 -1;
#X obj 1291 549 bng 15 250 50 0 empty empty empty 17 7 0 10 -262144
-1 -1;
#X obj 1193 588 clip 60 72;
#X obj 963 542 phasor~ 0;
#X obj 1115 620 phasor~ 1046;
#X connect 0 0 39 0;
#X connect 1 0 45 0;
#X connect 2 0 51 0;
#X connect 3 0 57 0;
#X connect 4 0 63 0;
#X connect 5 0 69 0;
#X connect 6 0 19 0;
#X connect 7 0 15 0;
#X connect 8 0 7 0;
#X connect 13 0 75 0;
#X connect 14 0 26 1;
#X connect 15 0 17 0;
#X connect 15 1 16 0;
#X connect 19 1 27 0;
#X connect 20 0 27 0;
#X connect 20 1 28 0;
#X connect 21 0 28 0;
#X connect 21 1 29 0;
#X connect 22 0 29 0;
#X connect 22 1 30 0;
#X connect 23 0 30 0;
#X connect 23 1 31 0;
#X connect 24 0 31 0;
#X connect 24 1 32 0;
#X connect 25 0 32 0;
#X connect 25 1 33 0;
#X connect 26 0 33 0;
#X connect 27 0 0 0;
#X connect 27 0 19 1;
#X connect 27 0 20 0;
#X connect 28 0 1 0;
#X connect 28 0 20 1;
#X connect 28 0 21 0;
#X connect 29 0 2 0;
#X connect 29 0 21 1;
#X connect 29 0 22 0;
#X connect 30 0 3 0;
#X connect 30 0 22 1;
#X connect 30 0 23 0;
#X connect 31 0 4 0;
#X connect 31 0 23 1;
#X connect 31 0 24 0;
#X connect 32 0 5 0;
#X connect 32 0 24 1;
#X connect 32 0 25 0;
#X connect 33 0 13 0;
#X connect 33 0 25 1;
#X connect 33 0 26 0;
#X connect 35 0 44 0;
#X connect 36 0 50 0;
#X connect 37 0 56 0;
#X connect 38 0 62 0;
#X connect 39 0 41 0;
#X connect 40 0 42 0;
#X connect 41 0 40 0;
#X connect 41 1 40 1;
#X connect 42 0 43 0;
#X connect 43 0 44 1;
#X connect 44 0 87 0;
#X connect 45 0 47 0;
#X connect 46 0 48 0;
#X connect 47 0 46 0;
#X connect 47 1 46 1;
#X connect 48 0 49 0;
#X connect 49 0 50 1;
#X connect 50 0 87 0;
#X connect 51 0 53 0;
#X connect 52 0 54 0;
#X connect 53 0 52 0;
#X connect 53 1 52 1;
#X connect 54 0 55 0;
#X connect 55 0 56 1;
#X connect 56 0 87 0;
#X connect 57 0 59 0;
#X connect 58 0 60 0;
#X connect 59 0 58 0;
#X connect 59 1 58 1;
#X connect 60 0 61 0;
#X connect 61 0 62 1;
#X connect 62 0 87 0;
#X connect 63 0 65 0;
#X connect 64 0 66 0;
#X connect 65 0 64 0;
#X connect 65 1 64 1;
#X connect 66 0 67 0;
#X connect 67 0 68 1;
#X connect 68 0 87 0;
#X connect 69 0 71 0;
#X connect 70 0 72 0;
#X connect 71 0 70 0;
#X connect 71 1 70 1;
#X connect 72 0 73 0;
#X connect 73 0 74 1;
#X connect 74 0 87 0;
#X connect 75 0 77 0;
#X connect 76 0 78 0;
#X connect 77 0 76 0;
#X connect 77 1 76 1;
#X connect 78 0 79 0;
#X connect 79 0 80 1;
#X connect 80 0 87 0;
#X connect 81 0 68 0;
#X connect 82 0 74 0;
#X connect 83 0 80 0;
#X connect 86 0 6 0;
#X connect 88 0 89 1;
#X connect 89 0 88 0;
#X connect 89 0 109 0;
#X connect 91 0 101 0;
#X connect 91 0 102 0;
#X connect 92 0 105 0;
#X connect 92 0 107 0;
#X connect 93 0 106 0;
#X connect 93 0 108 0;
#X connect 96 0 103 0;
#X connect 97 0 104 0;
#X connect 98 0 97 0;
#X connect 99 0 100 0;
#X connect 100 0 110 0;
#X connect 101 0 92 0;
#X connect 102 0 93 0;
#X connect 103 0 88 0;
#X connect 103 0 90 0;
#X connect 105 0 89 0;
#X connect 106 0 89 0;
#X connect 109 0 90 0;
#X connect 109 0 95 0;
#X connect 109 0 99 0;
#X connect 110 0 83 0;
#X connect 110 0 82 0;
#X connect 110 0 81 0;
#X connect 110 0 38 0;
#X connect 110 0 37 0;
#X connect 110 0 36 0;
#X connect 110 0 35 0;
#X connect 111 0 35 0;
#X connect 111 0 36 0;
#X connect 111 0 37 0;
#X connect 111 0 38 0;
#X connect 111 0 81 0;
#X connect 111 0 82 0;
#X connect 111 0 83 0;
#X coords 0 -1 1 1 200 150 1 100 100;
#X restore 509 472 pd;
#X obj 143 265 - 9;
#X obj -96 269 - 13;
#X obj -61 216 hsl 128 15 0 50 0 0 empty empty empty -2 -8 0 10 -262144
-1 -1 4300 1;
#X obj -91 371 * 50;
#X obj 186 217 hsl 128 15 0 50 0 0 empty empty empty -2 -8 0 10 -262144
-1 -1 2300 1;
#X floatatom 185 244 5 0 0 0 - - -;
#X obj 577 191 hsl 128 15 0 50 0 0 empty empty empty -2 -8 0 10 -262144
-1 -1 2200 1;
#X floatatom 577 223 5 0 0 0 - - -;
#X floatatom -75 249 5 0 0 0 - - -;
#X obj 517 348 * 50;
#X obj 142 359 * 50;
#X obj 0 644 freeverb~;
#X obj 850 616 freeverb~;
#X obj 892 647 freeverb~;
#X msg -85 661 roomsize \$1;
#X msg -85 683 damping \$1;
#X obj -263 664 hsl 128 15 0 1 0 0 empty empty empty -2 -8 0 10 -262144
-1 -1 4500 1;
#X obj -248 689 hsl 128 15 0 1 0 0 empty empty empty -2 -8 0 10 -262144
-1 -1 3500 1;
#X obj -133 634 *~ 10;
#X connect 0 0 32 0;
#X connect 1 0 34 0;
#X connect 2 0 24 0;
#X connect 2 1 22 0;
#X connect 2 2 26 0;
#X connect 3 0 7 0;
#X connect 4 0 3 0;
#X connect 5 0 24 1;
#X connect 7 0 0 0;
#X connect 8 0 31 0;
#X connect 9 0 41 0;
#X connect 10 0 29 0;
#X connect 11 0 21 0;
#X connect 12 0 11 0;
#X connect 13 0 22 1;
#X connect 14 0 27 0;
#X connect 15 0 40 0;
#X connect 16 0 30 0;
#X connect 17 0 20 0;
#X connect 18 0 17 0;
#X connect 19 0 26 1;
#X connect 20 0 14 0;
#X connect 21 0 8 0;
#X connect 22 0 12 0;
#X connect 24 0 4 0;
#X connect 25 0 28 0;
#X connect 26 0 18 0;
#X connect 27 0 15 0;
#X connect 28 0 49 0;
#X connect 29 0 23 0;
#X connect 29 0 23 1;
#X connect 30 0 23 0;
#X connect 30 0 23 1;
#X connect 31 0 9 0;
#X connect 32 0 1 0;
#X connect 33 0 39 0;
#X connect 34 0 25 0;
#X connect 35 0 36 0;
#X connect 36 0 31 1;
#X connect 37 0 38 0;
#X connect 38 0 27 1;
#X connect 39 0 32 1;
#X connect 40 0 16 0;
#X connect 41 0 10 0;
#X connect 42 0 23 0;
#X connect 42 1 23 0;
#X connect 45 0 42 0;
#X connect 46 0 42 0;
#X connect 47 0 45 0;
#X connect 48 0 46 0;
#X connect 49 0 42 0;
#X connect 49 0 42 1;
